<svg width="19" height="16" viewBox="0 0 19 16" fill="none" xmlns="http://www.w3.org/2000/svg">
<path d="M18.4159 7.83464L12.8069 1.01846C12.6988 0.91621 12.5638 0.865518 12.4272 0.875903C12.2905 0.886289 12.1617 0.957038 12.0649 1.07486C11.9681 1.19268 11.91 1.34947 11.9015 1.51578C11.8929 1.68208 11.9346 1.84645 12.0186 1.97802L16.6671 7.63611H1.01804C0.869044 7.63611 0.726146 7.70815 0.620787 7.83639C0.515428 7.96464 0.456238 8.13857 0.456238 8.31993C0.456238 8.50129 0.515428 8.67522 0.620787 8.80347C0.726146 8.93171 0.869044 9.00375 1.01804 9.00375H16.658L12.0186 14.6508C11.9557 14.7103 11.9039 14.7854 11.8666 14.8712C11.8294 14.9569 11.8076 15.0513 11.8026 15.1481C11.7976 15.2449 11.8096 15.3419 11.8378 15.4326C11.866 15.5233 11.9097 15.6057 11.9661 15.6743C12.0224 15.7429 12.0901 15.7961 12.1646 15.8304C12.2391 15.8647 12.3188 15.8793 12.3983 15.8732C12.4779 15.8672 12.5554 15.8406 12.6259 15.7953C12.6963 15.75 12.758 15.6869 12.8069 15.6104L18.4159 8.78317C18.5167 8.65575 18.573 8.48577 18.573 8.3089C18.573 8.13204 18.5167 7.96205 18.4159 7.83464Z" fill="#FEFEFE"/>
</svg>
