<svg width="13" height="11" viewBox="0 0 13 11" fill="none" xmlns="http://www.w3.org/2000/svg">
<path fill-rule="evenodd" clip-rule="evenodd" d="M1.1127 4.62974C4.46519 3.23262 6.7007 2.31156 7.81925 1.86654C11.0129 0.595942 11.6765 0.375225 12.1091 0.367937C12.2042 0.366334 12.4169 0.388885 12.5547 0.495826C12.671 0.586125 12.7031 0.708106 12.7184 0.793719C12.7337 0.879333 12.7528 1.07436 12.7376 1.22675C12.5645 2.96611 11.8157 7.18707 11.4347 9.13518C11.2735 9.9595 10.9561 10.2359 10.6488 10.2629C9.98096 10.3217 9.47384 9.84078 8.82702 9.43522C7.81487 8.80059 7.24307 8.40553 6.2606 7.78625C5.12519 7.07056 5.86123 6.67721 6.5083 6.03436C6.67764 5.86612 9.6201 3.3061 9.67705 3.07386C9.68417 3.04482 9.69078 2.93655 9.62354 2.87938C9.5563 2.82222 9.45706 2.84177 9.38544 2.85731C9.28392 2.87935 7.667 3.90161 4.53467 5.92409C4.07571 6.22554 3.66 6.37242 3.28754 6.36472C2.87693 6.35624 2.08708 6.14265 1.49991 5.96008C0.779725 5.73616 0.207334 5.61777 0.257176 5.23747C0.283137 5.03939 0.568313 4.83681 1.1127 4.62974Z" fill="#2E2E2E"/>
</svg>
