<svg width="13" height="11" viewBox="0 0 13 11" fill="none" xmlns="http://www.w3.org/2000/svg">
<path fill-rule="evenodd" clip-rule="evenodd" d="M6.63596 3.4998L6.66114 3.91502L6.24146 3.86418C4.71379 3.66928 3.37919 3.0083 2.24603 1.89821L1.69204 1.34739L1.54935 1.75415C1.24717 2.66087 1.44023 3.61843 2.06976 4.26246C2.40551 4.61837 2.32997 4.66921 1.7508 4.45736C1.54935 4.38957 1.37308 4.33872 1.35629 4.36415C1.29754 4.42346 1.49899 5.1946 1.65847 5.49966C1.87671 5.92337 2.32157 6.33859 2.80841 6.58434L3.21971 6.77924L2.73287 6.78772C2.26282 6.78772 2.24603 6.79619 2.29639 6.97414C2.46427 7.52496 3.12737 8.10966 3.86602 8.36388L4.38644 8.54184L3.93317 8.81301C3.26167 9.20281 2.47266 9.42314 1.68365 9.44009C1.30593 9.44856 0.995361 9.48245 0.995361 9.50788C0.995361 9.59262 2.0194 10.0672 2.61536 10.2536C4.40322 10.8044 6.52684 10.5671 8.12166 9.62651C9.25481 8.95707 10.388 7.62664 10.9168 6.33859C11.2022 5.6522 11.4876 4.39804 11.4876 3.79639C11.4876 3.40658 11.5127 3.35574 11.9828 2.88967C12.2598 2.6185 12.52 2.32191 12.5703 2.23717C12.6543 2.07616 12.6459 2.07616 12.2178 2.22022C11.5043 2.47444 11.4036 2.44054 11.7562 2.05921C12.0164 1.78804 12.3269 1.29655 12.3269 1.15249C12.3269 1.12707 12.201 1.16944 12.0583 1.24571C11.9072 1.33045 11.5715 1.45756 11.3197 1.53382L10.8664 1.67788L10.4551 1.39824C10.2285 1.24571 9.90953 1.07622 9.74165 1.02538C9.31357 0.906745 8.65886 0.923693 8.27274 1.05928C7.22353 1.44061 6.56042 2.42359 6.63596 3.4998Z" fill="#2E2E2E"/>
</svg>
